<svg width="117" height="121" viewBox="0 0 117 121" fill="none" xmlns="http://www.w3.org/2000/svg">
<path d="M100.217 103.995C91.4554 112.795 79.8043 117.635 67.4118 117.635C55.0194 117.635 43.3689 112.791 34.6068 103.995C25.8446 95.1988 21.0181 83.5025 21.0181 71.0621C21.0181 58.6217 25.8439 46.9262 34.6068 38.1294C34.8131 37.923 35.0277 37.7296 35.2378 37.527C35.073 38.0315 34.8932 38.5284 34.6023 38.9638C33.9138 39.9955 32.7622 40.4052 32.0397 41.377C31.3823 42.2592 30.8533 43.5944 30.6085 44.5851C30.3432 45.657 30.5042 46.9596 30.1286 48.0285C29.6518 49.3856 28.7842 50.1935 28.9452 51.7676C30.8299 52.329 30.0122 48.9676 31.6007 48.7939C32.104 50.0494 31.7737 52.3836 31.6309 53.7514C31.4329 55.632 31.0679 56.0985 32.1871 57.7136C33.0735 58.9934 33.3667 59.8491 35.0821 60.0517C36.6547 60.2375 37.3069 60.9514 37.962 62.4724C39.1711 62.7318 39.9087 62.9328 40.0651 64.2817C40.5941 64.5745 41.5803 65.5258 42.1357 65.6729C42.9397 65.8846 44.2833 64.7345 45.042 65.6206C46.3086 67.1006 43.437 70.9665 42.9261 72.3001C42.1742 74.2536 42.0631 77.1226 43.9085 78.5253C44.8554 79.2452 45.862 79.5874 46.1695 80.8967C46.4544 82.1052 46.233 83.1103 46.7665 84.252C47.5978 86.0325 49.5013 86.6227 50.857 87.9852C52.6344 89.7717 52.5127 92.0923 52.5127 94.6207C52.5127 97.2698 53.5148 99.2839 53.8639 101.709C54.2244 104.213 54.9566 106.529 55.4803 108.948C55.8748 110.768 57.4375 113.518 59.7016 113.147C59.8587 112.285 58.9686 111.61 58.8567 110.757C58.7555 109.981 58.9723 109.174 58.8182 108.344C58.5159 106.7 58.5287 105.735 59.6147 104.306C59.9978 103.801 60.526 103.384 60.922 102.878C61.6898 101.897 61.1019 102.188 61.0686 101.113C61.0278 99.7724 61.4344 100.43 62.2399 100.011C62.6578 99.7952 63.1218 99.139 63.4422 98.8052C64.1465 98.0716 65.2294 97.1916 65.7735 96.3207C66.3848 95.3399 66.3085 93.9744 66.935 92.9624C67.6544 91.8009 68.6731 91.7994 69.6789 91.0423C70.9824 90.0615 70.4451 89.0282 70.6824 87.6832C71.0799 85.4332 72.0948 82.9525 73.5079 81.1592C75.2861 78.9038 76.0501 76.9868 73.8858 74.8218C72.8165 73.7514 72.2596 74.0366 70.8404 73.6641C69.759 73.3796 68.7849 72.5869 67.6846 72.4503C67.0257 72.3692 66.6357 72.6081 66.0327 72.4503C65.472 72.3032 65.54 71.9588 64.9483 71.9649C64.0649 71.9755 62.8324 73.8227 62.0858 72.6423C61.6701 71.9846 62.9306 70.1662 62.8739 69.2839C62.8029 68.2014 62.4016 66.4376 61.3452 65.8451C60.9454 65.6176 60.0605 65.5895 59.5686 65.3998C58.992 65.1768 58.4283 64.8203 57.9121 64.4895C57.2403 64.0563 55.939 63.3008 55.6405 62.5262C54.8138 62.4928 54.2546 62.0362 53.4135 62.0468C52.6578 62.0574 52.1591 62.4071 51.3437 62.3146C50.6296 62.2349 49.8595 61.6682 49.0902 61.7752C48.5764 61.8473 47.8154 62.5156 47.3703 62.7682C46.2142 63.4342 44.9564 63.9037 43.6478 64.158C41.6377 64.5373 41.2765 63.765 41.3951 61.8966L41.0928 61.2935C41.8402 59.2088 40.4936 59.0624 39.0117 58.5564C38.8069 57.0718 40.6258 56.0113 39.8656 54.3841C38.3263 54.3082 36.6486 58.652 35.3466 56.7691C34.4881 55.5273 35.7932 52.0552 36.5489 51.0037C37.3046 49.9523 40.081 48.03 41.3853 47.8653C42.4009 47.7379 43.2896 48.1862 43.6803 49.0791C44.1058 50.0539 43.5503 50.9756 43.6727 52.0771C44.971 51.7737 44.6347 50.1184 44.5796 49.2301C44.4851 47.747 45.2597 47.8578 46.0154 46.7881C46.7023 45.8133 46.8081 44.702 47.665 43.7598C48.3315 43.0262 49.1144 42.2524 49.8467 41.5765C50.678 40.805 51.6225 40.8748 52.4795 40.3066C53.7815 39.4425 52.0593 37.8365 53.978 37.9549C54.6581 37.9974 54.3218 38.4252 55.2256 38.2181C55.6088 38.1301 56.3176 37.7743 56.7189 37.6112C58.5507 36.864 57.2524 36.6645 56.4121 35.6919C55.3435 34.4554 56.8557 34.6724 57.9582 34.4858C58.7675 34.3485 58.5968 34.0837 59.3071 34.5616C59.9336 34.9819 59.5656 35.5425 60.4754 35.5114C62.2097 35.4522 61.0089 33.7074 60.622 33.1286C59.9608 32.1371 59.7907 31.4475 58.3958 31.4088C58.528 30.9635 58.5469 30.3756 58.3504 29.9462C57.1746 30.1018 56.9713 29.2438 56.0833 28.9062C54.5848 28.3365 54.8251 29.5685 54.2123 30.409C53.5805 31.2761 52.3752 31.1251 51.9112 32.1826C51.4291 33.2818 51.8893 34.1232 50.1271 33.822C50.3666 33.1597 50.2842 32.3124 50.2396 31.6053C49.7452 31.5354 49.2586 31.418 48.7865 31.2548C48.7865 29.4865 50.7391 29.3378 52.0654 29.1702C53.5503 28.9813 54.0354 27.4648 55.3624 27.2099C56.6002 26.971 57.4867 28.9828 59.0131 27.8168C59.8837 27.1515 59.4809 26.7608 59.1643 26.1198C59.0789 25.9484 58.6398 25.563 58.5235 25.4029L58.494 25.3498C59.6766 25.1222 60.8736 24.9432 62.0797 24.8051C62.3064 25.4659 62.7984 26.2655 63.0666 26.7237C63.2631 27.0597 63.6341 27.285 63.7913 27.6537C63.9704 28.0732 63.5488 28.5952 64.0777 28.8789C64.8939 29.3166 67.2698 26.4657 67.8403 26.0022C68.5642 25.4151 69.0169 25.0919 68.8446 24.5245C72.6179 24.6354 76.3636 25.207 79.9993 26.2268C80.2849 26.5864 80.5789 26.9573 80.8728 27.3647C81.5061 28.247 81.9059 29.042 83.0469 29.4342C83.7074 29.6618 85.818 29.62 84.9407 31.1342C84.1306 32.5316 83.2344 30.7003 82.8248 30.2603C82.2588 29.6534 80.5857 28.9707 80.6386 30.3734C80.7141 32.455 85.3896 32.1181 84.3868 34.4069C84.946 34.7384 86.0493 35.2891 85.8702 36.1077C85.6435 37.1196 84.3339 36.4748 84.3588 37.7675C84.3958 39.5988 86.3863 41.1054 88.2355 40.4477C90.2071 39.7444 88.7221 36.9975 90.9809 36.7146C91.8718 36.6038 92.3963 36.8663 93.1935 37.499C93.8434 38.0156 94.2613 39.1884 95.1583 39.0974C95.2512 38.539 94.8318 38.14 94.7608 37.6272C95.4538 37.8001 96.848 38.6695 97.2455 39.2756C97.8501 40.192 97.7843 41.5135 99.2556 40.3309C99.0357 40.1488 98.9246 39.7429 98.8022 39.5988C100.684 39.6049 101.998 40.3824 102.807 42.0263C104.613 45.6874 100.179 42.7849 99.9591 44.6891C98.8687 44.3409 98.3836 43.4593 97.4352 42.9313C96.9855 42.6818 96.155 42.816 95.8104 42.5619C95.3359 42.2137 95.453 41.5757 95.0359 41.2351C93.3968 39.8863 89.6584 42.065 88.1508 42.9359C87.7428 43.1718 87.3075 43.1976 87.0294 43.6414C86.5511 44.4 87.2229 44.5973 87.0725 45.3066C86.8594 46.3201 85.5414 46.7866 85.1432 47.5991C84.1865 49.5495 86.1294 52.3411 85.8679 54.507C85.7228 55.7086 84.4321 57.0104 84.9271 58.0163C85.1402 58.4495 85.8845 58.8182 86.1687 59.3287C86.4279 59.7922 86.5382 60.4006 86.879 60.8816C87.9838 62.4397 89.5723 64.1732 90.8668 65.6289C91.6028 66.4558 92.6049 66.6872 93.7127 66.4581C94.6286 66.2685 96.0198 65.9605 96.8677 65.5523C98.0012 65.0084 98.1523 64.2392 99.344 64.7581C100.292 65.1723 101.127 66.3853 102.235 65.3809C103.147 66.276 102.135 67.8365 101.932 68.8333C101.672 70.1131 102.176 71.2229 102.958 72.31C103.898 73.6141 104.118 73.8439 103.926 75.5864C103.775 76.9451 103.433 78.187 103.141 79.5312C102.864 80.8209 102.047 81.7964 102.089 83.1589C102.131 84.4174 102.673 85.4294 102.508 86.7782C102.363 87.9677 102.29 89.384 101.979 90.5485C101.662 91.741 100.823 92.7978 100.468 94.0176C100.133 95.179 100.227 96.6826 101.036 97.6377C101.878 98.6315 102.714 98.0625 103.704 97.31C105.651 95.8246 106.538 93.3053 107.833 91.3026C109.154 89.2543 110.487 87.3904 111.368 85.2708C111.554 84.821 111.78 84.378 112.01 83.9349C109.847 91.5206 105.789 98.4256 100.221 103.995H100.217ZM67.4118 22.1242C40.489 22.1242 18.6626 44.0344 18.6626 71.0621C18.6626 98.0898 40.489 120 67.4118 120C94.3346 120 116.161 98.0898 116.161 71.0621C116.161 44.0344 94.3354 22.1242 67.4118 22.1242Z" fill="white" stroke="white" stroke-width="0.33518" stroke-miterlimit="10"/>
<path fill-rule="evenodd" clip-rule="evenodd" d="M63.8794 84.5513C61.8168 84.7093 59.7234 84.7899 57.5993 84.7929C26.3454 84.7929 1 67.287 1 45.7013C1 24.5491 25.3369 7.31801 55.7209 6.63315C27.4224 8.79194 5.4018 25.3638 5.4018 45.4838C5.4018 67.0703 30.748 84.5754 62.0019 84.5754C62.6305 84.5754 63.2564 84.5674 63.8794 84.5513V84.5513Z" fill="white" stroke="white" stroke-width="0.0558633" stroke-miterlimit="10"/>
<path fill-rule="evenodd" clip-rule="evenodd" d="M78.1533 3.89087C78.3319 4.0121 78.7311 4.15952 79.0693 4.29946C81.5662 5.32916 79.0616 6.96278 77.5723 7.57865C76.351 8.08378 71.4114 8.5223 71.045 8.59713C70.9381 8.61958 70.0603 8.68618 68.8496 8.76924C68.8609 8.84012 68.868 8.91159 68.871 8.98327C68.8901 9.23974 68.8801 9.49749 68.8412 9.7518C68.6885 10.4171 65.9085 10.9701 65.0207 9.81765L60.0811 13.6746L57.2651 13.5331L61.9597 9.18082L52.4133 8.89571L50.4209 9.86854L47.6294 9.52431L50.1698 7.94009C50.1698 7.94009 49.6561 7.77995 49.2927 7.6692C48.879 7.54423 49.0019 6.46513 49.4767 6.22641C49.8583 6.03559 50.7423 6.10518 50.7423 6.10518L49.1301 1.54036L50.7828 1.03899C52.4408 0.535358 54.9812 5.07997 55.8254 4.952L73.9052 2.17046C75.6205 1.9063 76.8327 2.98464 78.1533 3.88563V3.89087Z" fill="white" stroke="white" stroke-width="0.0418975" stroke-miterlimit="10"/>
</svg>
