<svg width="145" height="75" viewBox="0 0 145 75" fill="none" xmlns="http://www.w3.org/2000/svg">
<path d="M35.4141 33.8203C35.4141 36.4609 35.0859 38.8672 34.4297 41.0391C33.7734 43.1953 32.7734 45.0547 31.4297 46.6172C30.1016 48.1797 28.4141 49.3828 26.3672 50.2266C24.3203 51.0547 21.8984 51.4688 19.1016 51.4688C16.3047 51.4688 13.8828 51.0547 11.8359 50.2266C9.78906 49.3828 8.09375 48.1797 6.75 46.6172C5.42188 45.0547 4.42969 43.1875 3.77344 41.0156C3.11719 38.8438 2.78906 36.4297 2.78906 33.7734C2.78906 30.2266 3.36719 27.1406 4.52344 24.5156C5.69531 21.875 7.49219 19.8281 9.91406 18.375C12.3359 16.9219 15.4141 16.1953 19.1484 16.1953C22.8672 16.1953 25.9219 16.9219 28.3125 18.375C30.7188 19.8281 32.5 21.875 33.6562 24.5156C34.8281 27.1562 35.4141 30.2578 35.4141 33.8203ZM10.4062 33.8203C10.4062 36.2109 10.7031 38.2734 11.2969 40.0078C11.9062 41.7266 12.8516 43.0547 14.1328 43.9922C15.4141 44.9141 17.0703 45.375 19.1016 45.375C21.1641 45.375 22.8359 44.9141 24.1172 43.9922C25.3984 43.0547 26.3281 41.7266 26.9062 40.0078C27.5 38.2734 27.7969 36.2109 27.7969 33.8203C27.7969 30.2266 27.125 27.3984 25.7812 25.3359C24.4375 23.2734 22.2266 22.2422 19.1484 22.2422C17.1016 22.2422 15.4297 22.7109 14.1328 23.6484C12.8516 24.5703 11.9062 25.8984 11.2969 27.6328C10.7031 29.3516 10.4062 31.4141 10.4062 33.8203ZM52.5 16.7344C55.6094 16.7344 58.1719 17.1094 60.1875 17.8594C62.2188 18.6094 63.7266 19.7422 64.7109 21.2578C65.6953 22.7734 66.1875 24.6875 66.1875 27C66.1875 28.5625 65.8906 29.9297 65.2969 31.1016C64.7031 32.2734 63.9219 33.2656 62.9531 34.0781C61.9844 34.8906 60.9375 35.5547 59.8125 36.0703L69.8906 51H61.8281L53.6484 37.8516H49.7812V51H42.5156V16.7344H52.5ZM51.9844 22.6875H49.7812V31.9453H52.125C54.5312 31.9453 56.25 31.5469 57.2812 30.75C58.3281 29.9375 58.8516 28.75 58.8516 27.1875C58.8516 25.5625 58.2891 24.4062 57.1641 23.7188C56.0547 23.0312 54.3281 22.6875 51.9844 22.6875ZM74.2031 16.7344H84.8672C89.4297 16.7344 92.8828 17.375 95.2266 18.6562C97.5703 19.9375 98.7422 22.1875 98.7422 25.4062C98.7422 26.7031 98.5312 27.875 98.1094 28.9219C97.7031 29.9688 97.1094 30.8281 96.3281 31.5C95.5469 32.1719 94.5938 32.6094 93.4688 32.8125V33.0469C94.6094 33.2812 95.6406 33.6875 96.5625 34.2656C97.4844 34.8281 98.2188 35.6562 98.7656 36.75C99.3281 37.8281 99.6094 39.2656 99.6094 41.0625C99.6094 43.1406 99.1016 44.9219 98.0859 46.4062C97.0703 47.8906 95.6172 49.0312 93.7266 49.8281C91.8516 50.6094 89.6172 51 87.0234 51H74.2031V16.7344ZM81.4688 30.3047H85.6875C87.7969 30.3047 89.2578 29.9766 90.0703 29.3203C90.8828 28.6484 91.2891 27.6641 91.2891 26.3672C91.2891 25.0547 90.8047 24.1172 89.8359 23.5547C88.8828 22.9766 87.3672 22.6875 85.2891 22.6875H81.4688V30.3047ZM81.4688 36.0703V45H86.2031C88.3906 45 89.9141 44.5781 90.7734 43.7344C91.6328 42.8906 92.0625 41.7578 92.0625 40.3359C92.0625 39.4922 91.875 38.75 91.5 38.1094C91.125 37.4688 90.4922 36.9688 89.6016 36.6094C88.7266 36.25 87.5156 36.0703 85.9688 36.0703H81.4688ZM106.453 51V16.7344H113.719V51H106.453ZM142.57 41.4844C142.57 43.5156 142.078 45.2812 141.094 46.7812C140.109 48.2812 138.672 49.4375 136.781 50.25C134.906 51.0625 132.625 51.4688 129.938 51.4688C128.75 51.4688 127.586 51.3906 126.445 51.2344C125.32 51.0781 124.234 50.8516 123.188 50.5547C122.156 50.2422 121.172 49.8594 120.234 49.4062V42.6562C121.859 43.375 123.547 44.0234 125.297 44.6016C127.047 45.1797 128.781 45.4688 130.5 45.4688C131.688 45.4688 132.641 45.3125 133.359 45C134.094 44.6875 134.625 44.2578 134.953 43.7109C135.281 43.1641 135.445 42.5391 135.445 41.8359C135.445 40.9766 135.156 40.2422 134.578 39.6328C134 39.0234 133.203 38.4531 132.188 37.9219C131.188 37.3906 130.055 36.8203 128.789 36.2109C127.992 35.8359 127.125 35.3828 126.188 34.8516C125.25 34.3047 124.359 33.6406 123.516 32.8594C122.672 32.0781 121.977 31.1328 121.43 30.0234C120.898 28.8984 120.633 27.5547 120.633 25.9922C120.633 23.9453 121.102 22.1953 122.039 20.7422C122.977 19.2891 124.312 18.1797 126.047 17.4141C127.797 16.6328 129.859 16.2422 132.234 16.2422C134.016 16.2422 135.711 16.4531 137.32 16.875C138.945 17.2812 140.641 17.875 142.406 18.6562L140.062 24.3047C138.484 23.6641 137.07 23.1719 135.82 22.8281C134.57 22.4688 133.297 22.2891 132 22.2891C131.094 22.2891 130.32 22.4375 129.68 22.7344C129.039 23.0156 128.555 23.4219 128.227 23.9531C127.898 24.4688 127.734 25.0703 127.734 25.7578C127.734 26.5703 127.969 27.2578 128.438 27.8203C128.922 28.3672 129.641 28.8984 130.594 29.4141C131.562 29.9297 132.766 30.5312 134.203 31.2188C135.953 32.0469 137.445 32.9141 138.68 33.8203C139.93 34.7109 140.891 35.7656 141.562 36.9844C142.234 38.1875 142.57 39.6875 142.57 41.4844Z" fill="white"/>
<path d="M43.0703 72.5882H41.7344V62.3382H38.1406V61.1664H46.6484V62.3382H43.0703V72.5882ZM57.0156 61.1664V68.557C57.0156 69.3643 56.8516 70.083 56.5234 70.7132C56.2005 71.3434 55.7109 71.8408 55.0547 72.2054C54.3984 72.5648 53.5755 72.7445 52.5859 72.7445C51.1745 72.7445 50.099 72.3617 49.3594 71.596C48.625 70.8304 48.2578 69.807 48.2578 68.5257V61.1664H49.5938V68.5648C49.5938 69.5335 49.849 70.2809 50.3594 70.807C50.875 71.333 51.6432 71.596 52.6641 71.596C53.362 71.596 53.9323 71.471 54.375 71.221C54.8229 70.9658 55.1536 70.6117 55.3672 70.1585C55.5859 69.7002 55.6953 69.1716 55.6953 68.5726V61.1664H57.0156ZM63.1328 61.1664C64.0703 61.1664 64.8438 61.2835 65.4531 61.5179C66.0677 61.7471 66.526 62.0986 66.8281 62.5726C67.1302 63.0466 67.2812 63.6507 67.2812 64.3851C67.2812 64.9893 67.1719 65.4945 66.9531 65.9007C66.7344 66.3018 66.4479 66.6273 66.0938 66.8773C65.7396 67.1273 65.362 67.32 64.9609 67.4554L68.0938 72.5882H66.5469L63.75 67.8226H61.375V72.5882H60.0469V61.1664H63.1328ZM63.0547 62.3148H61.375V66.6976H63.1875C64.1198 66.6976 64.8047 66.5075 65.2422 66.1273C65.6849 65.7471 65.9062 65.1872 65.9062 64.4476C65.9062 63.6716 65.6719 63.1221 65.2031 62.7992C64.7396 62.4762 64.0234 62.3148 63.0547 62.3148ZM69.9219 72.5882V61.1664H71.25V72.5882H69.9219ZM80.8359 69.5492C80.8359 70.2262 80.6667 70.8044 80.3281 71.2835C79.9948 71.7575 79.526 72.1195 78.9219 72.3695C78.3177 72.6195 77.6068 72.7445 76.7891 72.7445C76.3568 72.7445 75.9479 72.7236 75.5625 72.682C75.1771 72.6403 74.8229 72.5804 74.5 72.5023C74.1771 72.4242 73.8932 72.3278 73.6484 72.2132V70.9398C74.0391 71.1012 74.5156 71.2523 75.0781 71.3929C75.6406 71.5283 76.2292 71.596 76.8438 71.596C77.4167 71.596 77.901 71.5205 78.2969 71.3695C78.6927 71.2132 78.9922 70.9919 79.1953 70.7054C79.4036 70.4137 79.5078 70.0648 79.5078 69.6585C79.5078 69.2679 79.4219 68.9424 79.25 68.682C79.0781 68.4164 78.7917 68.1768 78.3906 67.9632C77.9948 67.7445 77.4531 67.5127 76.7656 67.2679C76.2812 67.096 75.8542 66.9085 75.4844 66.7054C75.1146 66.4971 74.8047 66.2627 74.5547 66.0023C74.3047 65.7419 74.1146 65.4398 73.9844 65.096C73.8594 64.7523 73.7969 64.3591 73.7969 63.9164C73.7969 63.307 73.9505 62.7861 74.2578 62.3539C74.5703 61.9164 75 61.583 75.5469 61.3539C76.099 61.1195 76.7318 61.0023 77.4453 61.0023C78.0547 61.0023 78.6172 61.0596 79.1328 61.1742C79.6536 61.2887 80.1302 61.4424 80.5625 61.6351L80.1484 62.7757C79.737 62.6039 79.2995 62.4606 78.8359 62.346C78.3776 62.2315 77.9036 62.1742 77.4141 62.1742C76.9245 62.1742 76.5104 62.2471 76.1719 62.3929C75.8385 62.5335 75.5833 62.7341 75.4062 62.9945C75.2292 63.2549 75.1406 63.5648 75.1406 63.9242C75.1406 64.3252 75.224 64.6585 75.3906 64.9242C75.5625 65.1898 75.8333 65.4268 76.2031 65.6351C76.5781 65.8382 77.0729 66.0518 77.6875 66.2757C78.3594 66.5205 78.9297 66.7809 79.3984 67.057C79.8672 67.3278 80.224 67.6611 80.4688 68.057C80.7135 68.4476 80.8359 68.945 80.8359 69.5492ZM88.1953 72.5882L84.3594 62.4789H84.2969C84.3177 62.6924 84.3359 62.9528 84.3516 63.2601C84.3672 63.5674 84.3802 63.9033 84.3906 64.2679C84.401 64.6273 84.4062 64.9945 84.4062 65.3695V72.5882H83.1719V61.1664H85.1406L88.7578 70.6664H88.8125L92.4844 61.1664H94.4375V72.5882H93.125V65.2757C93.125 64.9372 93.1302 64.5986 93.1406 64.2601C93.151 63.9164 93.1641 63.5934 93.1797 63.2914C93.1953 62.9841 93.2109 62.7184 93.2266 62.4945H93.1641L89.2812 72.5882H88.1953ZM107.469 66.8617C107.469 67.7419 107.357 68.544 107.133 69.2679C106.909 69.9867 106.576 70.6065 106.133 71.1273C105.695 71.6429 105.151 72.0414 104.5 72.3226C103.849 72.6039 103.094 72.7445 102.234 72.7445C101.349 72.7445 100.576 72.6039 99.9141 72.3226C99.2578 72.0414 98.7109 71.6403 98.2734 71.1195C97.8411 70.5986 97.5156 69.9762 97.2969 69.2523C97.0833 68.5283 96.9766 67.7262 96.9766 66.846C96.9766 65.6794 97.1693 64.6559 97.5547 63.7757C97.9401 62.8955 98.5234 62.2106 99.3047 61.721C100.091 61.2315 101.076 60.9867 102.258 60.9867C103.388 60.9867 104.339 61.2289 105.109 61.7132C105.885 62.1976 106.471 62.8799 106.867 63.7601C107.268 64.6351 107.469 65.669 107.469 66.8617ZM98.375 66.8617C98.375 67.8304 98.513 68.669 98.7891 69.3773C99.0651 70.0856 99.487 70.6325 100.055 71.0179C100.628 71.4033 101.354 71.596 102.234 71.596C103.12 71.596 103.844 71.4033 104.406 71.0179C104.974 70.6325 105.393 70.0856 105.664 69.3773C105.935 68.669 106.07 67.8304 106.07 66.8617C106.07 65.3877 105.76 64.2367 105.141 63.4085C104.526 62.5752 103.565 62.1585 102.258 62.1585C101.372 62.1585 100.643 62.3486 100.07 62.7289C99.4974 63.1091 99.0703 63.6507 98.7891 64.3539C98.513 65.0518 98.375 65.8877 98.375 66.8617Z" fill="white"/>
</svg>
